<?xml version="1.0" encoding="utf-8"?>
<!-- Generator: Adobe Illustrator 27.3.1, SVG Export Plug-In . SVG Version: 6.00 Build 0)  -->
<svg version="1.1" id="Layer_1" xmlns="http://www.w3.org/2000/svg" xmlns:xlink="http://www.w3.org/1999/xlink" x="0px" y="0px"
	 viewBox="0 0 1005 980" style="enable-background:new 0 0 1005 980;" xml:space="preserve">
<style type="text/css">
	.st0{fill:#FFFFFF;}
</style>
<g id="_x23_000000ff">
	<path class="st0" d="M411.4,4.5c19.6-4.1,38.8,4.1,53.4,16.7c4,3.4,9.4,10.1,14.2,3.8c17.3-13.1,40.2-18.6,61.4-13.5
		c25.5,4.9,45.6,23,61.8,42.4c17.2,19.3,29.7,42.3,40.2,65.8c1.4,3.4,5.6,2.7,7.5,0.2c8.3-9.2,21-18.3,33.9-11.7
		c10.3,8.6,13.6,22.2,21.5,32.7c22.8-1.8,44.8,4,66.8,9.1c7.1-1.2,9.6-9.8,12.4-15.6c11.7-21.8,29.2-40.7,50.5-53.4
		c8.1-5,19.6,4.4,16.2,13.1c-2.3,10-14.1,9.9-21.9,12.2c-6.3,3-14.5,4.2-18.2,10.7c-7.2,10.4-15.6,20.3-19.5,32.6
		c-1.2,3.5-3.5,8.9,0.7,11.1c4.9,2.6,9.1,7.4,14.7,8.3c23.8-15.4,47.6-36.1,77.4-38.6c5.9-0.4,15.3,2.2,13.2,10
		c0,13.4-15.8,13.8-25.4,11.3c-14-3.8-26.6,4.8-38.4,11.1c-6.4,3.4-12.8,10.4-11.5,18c6.2,7.4,13.4,18.4,24.6,16.1
		c23.9-0.4,48.5,4.6,68.7,17.6c11.3,9.2-4.8,30-15.4,19.4c-8.7-9.6-17.5-19.8-30.5-23.5c-7.3-5.3-20.9,3.8-15,12
		c15.3,24.7,19.4,53.9,25.2,81.8c11.5,62.1,5.5,126.8-14.3,186.6c-18,50.5-52.8,95.5-99.6,122.3c-2.1,2.4-9.5,4.5-7.3,8.3
		c16.2,3.2,33.2-0.6,49.7,1.1c28.1-0.1,56.3,3.5,84.4,1.4c3.4-9.4,7.1-19.3,5.9-29.5c-2.4-11.2-6.6-22.2-13.5-31.5
		c-5.7-7.3-6.8-20.1,2.7-24.8c11.9-6.6,25.7,0.2,34.9,8.2c14.3,13.5-1.2,37.5,14.2,50c15-17.2,48.9-17.3,58.8,5
		c2.1,5.3-0.1,11.1,0.6,16.4c10.6,5.8,8.8,20.5,1.8,28.5c6.1,7.9,2,19.2-4.7,25.3c1.1,9.6-6.4,16.9-15.1,19.1
		c-6.2,2.7-15.8,3.8-19.9-2.9c-2.6-5-9.7-4.4-14.1-2.3c-11.7,4.5-25,5.9-37.2,2.6c-10.5-4.4-12-17.1-17.2-25.9
		c-92.9-0.6-185.8,2.4-278.6,4.3c-8.7,1-17.4,0.5-26,2c-1.1,0.9-2.7,1.9-2.1,3.7c0.8,22.5-5.1,45.8-19.8,63.4
		c-7.6,9.4-16.7,17.4-26.2,24.7c11.4,25.9,24.6,51.1,39.6,75.2c4.6,5.8,12.6,0.2,18.5,0.2c20.3-6.9,40.9-15.3,62.6-15.3
		c11.7,0,22.5,6.3,30.8,14.1c22.7,25.1,16.5,65.3-4.1,89.6c-9.3,6.3-8.5,18.6-15,27c-5.7,10.1-19.2,8-28.8,10.1
		c-8.1,0.6-9.5,11.3-17.5,12.5c-21.6,5.5-43.5-2-64.4-7.2c-16.8-5.8-35.2-10.3-48.7-22.4c-17.1-4.5-39-1.5-51.2-17
		c-5.2,7.6-14,10.8-22.9,12.3c-19.1,2.2-36.5,11.5-52.7,21.3c-15.6,11.6-35.4,18.2-54.8,16c-7.6-0.5-12.9-6.3-18.9-10.2
		c-10.5-0.6-21.8,2.8-31.7-2.2c-6.7-2.7-9-10-12.3-15.7c-8-1.8-17.6-3.2-22.1-11c-10.7-17-14.8-37.5-15.6-57.4
		c2.2-18.7,10.9-39.1,29.7-46.3c24.6-9.8,50.2,2.3,74.7,6.8c8.2,0.8,19.6,6.2,25.2-2.8c14.1-22.4,19.5-48.6,30.7-72.3
		c1.2-2.3,4.7-6,1.3-8c-16-9.2-29.8-22.5-38.1-39.1c-13.9-3.4-19.7,16.5-33.5,13.7c-11.6-3-24.6-10-27.5-22.6
		c-2.1-8.6,5.3-15.6,7.3-23.1c-10.8-4.9-24.6-10.7-26.1-24.1c-2.4-7.7,2.5-14.4,5.2-20.9c-29.6-1.8-59-8-87.8-15.4
		c-23.6-5.7-44.2-19.5-64-33c-24.3-17.9-46.8-38.8-64.7-63.2c-21.2-32-36-69.1-38.3-107.7c-2.9-24.3-5.2-49.1-0.6-73.4
		c11.8-51.9,24.9-105.2,55.3-149.8c5.9-7.8,12.7-14.7,18.5-22.5c2.3-2.8,2.5-7,0.5-10c-23.9-17.3-56.2-16.4-83.4-7.8
		c-3.1,1.8-6.9-2.1-6.3-5.3c24.1-11.4,51.7-8.6,77.4-5.7c6.8,1.6,13.2,4.9,19.7,7.4c9.5,9.1,24.9,1,29.3-9.5
		c1.1-8.2-6.9-14.4-11.5-20.3c-6.3-9.9-17.4-16.2-28.9-18.2c-13.3-2.6-26.2-7.2-39.8-8.2c-11.5-3.3-3.6-17.6,4.4-21
		c6.5-0.9,14.6-2.3,19.8,2.8c20.4,8.3,38.6,21.3,54,37.1c9.1,5.8,12.1,23.1,25.5,20.2c6.1-2.6,17.4-1.5,18.7-10.2
		c1-14.2-9.9-25.5-15.6-37.6c-8.3-6-12.9-16.3-23-20c-7.4-1.9-14.4-5-21.7-7.5c-9-5.8-6.6-24.1,6.5-21.5
		c15.8,6.1,30.7,15.6,40.1,29.9c8.2,13,17.4,25.6,23,40c3.4,7.8,5.7,19,15.4,20.5c13.1,0.3,26.2,1.9,39.3,1.2
		c8.4-9.8,13.7-23.6,26.6-28.5c14.7-4.4,23.3,10.6,31.8,19.5c3.4,3.7,5.3-1.6,6.7-3.9c12.6-25.8,27-51.1,46.8-72.3
		C367.3,29.3,385.7,8.7,411.4,4.5 M621.3,618.3c-2.7,0.7-11.2,4.3-0.4,2.6c4.9-1.4,12.7,2.8,16.2-1.8
		C631.8,619.2,626.5,617.9,621.3,618.3z"/>
</g>
</svg>
